<svg width="176" height="77" viewBox="0 0 176 77" fill="none" xmlns="http://www.w3.org/2000/svg">
<path fill-rule="evenodd" clip-rule="evenodd" d="M113.368 71.6057V71.6047C117.611 73.9726 122.246 75.8996 128.58 76.352C121.699 74.9104 117.125 71.9596 112.913 68.648C112.281 60.7799 116.166 53.0276 122.547 53.0276C126.317 53.0276 129.373 56.0844 129.373 59.8546C129.373 62.6897 127.644 65.1221 125.183 66.1527C127.139 70.8298 131.757 74.1162 137.143 74.1162C140.665 74.1162 143.858 72.7108 146.193 70.4299C147.061 69.5167 147.595 68.28 147.595 66.9202C147.595 66.2303 147.457 65.5724 147.208 64.9727L147.209 64.9722C148.77 62.5172 150.023 59.8924 150.952 57.1622C149.112 58.8303 147.075 60.3359 144.846 61.6375L141.399 58.5027L144.466 44.4466L144.466 44.4471C148.452 34.8842 158.344 28.7392 167.703 29.9727C167.813 31.1218 167.87 32.2861 167.87 33.464C167.87 36.1103 167.585 38.69 167.047 41.1759C169.532 38.3378 171.583 35.1106 173.095 31.5957L173.09 31.5815C173.81 31.2177 174.366 30.5781 174.62 29.8018C175.315 27.524 175.416 26.9793 175.871 24.6067C176.86 20.9145 171.933 15.7829 168.794 14.0404C169.765 13.6613 173.284 13.3216 174.51 13.5009C168.448 11.058 161.434 10.1375 155.037 10.4447C153.594 7.64795 150.954 5.56938 147.796 4.88474C136.836 2.97079 125.374 2.76949 113.813 4.49944C116.901 8.47518 119.05 13.1429 120.041 18.1246L119.954 17.95C114.521 7.10432 103.382 0 90.911 0C90.6919 0 90.4727 0.00418921 90.2536 0.00838302C90.1892 0.846622 90.1556 1.69377 90.1556 2.54826C90.1556 9.05392 92.0699 15.1119 95.3642 20.1916C92.8372 17.5773 90.7448 14.5394 89.2053 11.1954C73.1628 17.6523 59.4428 27.6535 48.8206 39.9256L48.8201 39.9246L48.8159 39.923C38.4621 51.3632 26.5809 61.3911 13.4988 69.6991C14.8333 70.2417 16.2926 70.541 17.8221 70.541C18.4453 70.541 19.057 70.4917 19.6535 70.3958L21.3623 70.1342C19.3542 71.1297 17.3257 72.0324 14.9104 72.4686C12.1213 72.9708 9.36419 72.8602 6.77587 72.2353C4.59115 71.8673 2.3058 71.8642 0 72.2804C2.32938 72.0251 4.60845 72.1866 6.76276 72.705C9.30129 73.5081 12.0442 73.8096 14.8616 73.5008C20.8193 72.8481 24.665 69.2598 31.3633 68.5259C33.4049 68.302 35.4183 68.3125 37.3765 68.5353C50.5593 70.2647 55.1142 62.469 66.7926 64.0579C54.9612 64.0579 51.519 72.4618 38.0967 72.4618C34.9371 72.4618 31.9378 73.149 29.2394 74.381C30.6955 74.5938 32.1381 74.901 33.5585 75.302C36.8555 76.4317 40.3134 77 43.7981 77C47.2827 77 50.7406 76.4317 54.0376 75.302C57.0689 74.446 60.2039 74.0182 63.3536 74.0182C66.5038 74.0182 69.6378 74.4465 72.6695 75.302C75.9665 76.4317 79.4244 77 82.9091 77C86.3937 77 89.8516 76.4317 93.1486 75.302C96.1804 74.446 99.3149 74.0182 102.465 74.0182C105.614 74.0182 108.749 74.4465 111.781 75.302C112.872 75.6768 113.983 75.9888 115.105 76.2394C110.484 72.5394 104.621 70.325 98.2403 70.325C91.5017 70.325 87.2884 73.473 81.2952 73.473C78.4615 73.473 75.7673 72.8749 73.3315 71.7997C71.2464 71.05 68.9983 70.6417 66.6548 70.6417C68.9925 70.4792 71.2632 70.7308 73.3955 71.3347C75.9005 72.2384 78.6293 72.6484 81.4561 72.4523C87.4357 72.0372 91.4204 68.605 98.1428 68.138C103.543 67.7626 108.682 69.004 113.087 71.4469L113.264 71.5465L113.368 71.6057ZM168.67 20.2582C169.083 20.3112 169.376 20.6891 169.323 21.1028C169.27 21.5164 168.892 21.8089 168.478 21.7565C168.064 21.7035 167.772 21.3255 167.825 20.9119C167.878 20.4983 168.256 20.2053 168.67 20.2582ZM170.58 23.39C170.994 23.4429 171.286 23.8209 171.233 24.235C171.18 24.6486 170.802 24.9411 170.389 24.8882C169.975 24.8353 169.683 24.4573 169.736 24.0437C169.788 23.6295 170.167 23.337 170.58 23.39ZM166.969 23.1855C167.383 23.2384 167.676 23.6164 167.623 24.03C167.57 24.4436 167.192 24.7362 166.778 24.6832C166.365 24.6303 166.072 24.2523 166.125 23.8387C166.178 23.4251 166.556 23.1326 166.969 23.1855ZM93.4946 2.04763C104.861 4.59171 113.975 13.0947 117.389 24.106C115.915 23.1939 114.384 22.3661 112.802 21.6291C109.688 20.3279 106.27 19.6082 102.684 19.6082C102.308 19.6082 101.934 19.6181 101.562 19.6333C103.505 18.5901 105.726 17.9972 108.085 17.9972C108.625 17.9972 109.158 18.0287 109.681 18.0895C105.82 11.4035 100.219 5.84985 93.4946 2.04763ZM143.292 13.6771C144.491 13.3552 145.702 13.3783 146.818 13.6844C147.19 13.7793 147.58 13.8296 147.981 13.8296C148.46 13.8296 148.923 13.7578 149.358 13.6241C149.284 14.0115 149.162 14.3822 148.999 14.7297V14.7302C148.459 16.0251 147.346 17.0636 145.887 17.4546C144.994 17.6937 144.092 17.6581 143.271 17.3991V17.4001C141.92 16.9829 140.45 16.8984 138.981 17.2198C139.811 15.5344 141.335 14.2018 143.292 13.6771Z" fill="#505050"/>
</svg>
