<svg width="149" height="149" viewBox="0 0 149 149" fill="none" xmlns="http://www.w3.org/2000/svg">
<rect width="149" height="149" rx="34" fill="#1A1A1A"/>
<path fill-rule="evenodd" clip-rule="evenodd" d="M89.8731 98.217V98.2163C92.8622 99.8769 96.1279 101.228 100.59 101.546C95.7427 100.535 92.5198 98.4651 89.5521 96.1428C89.1068 90.6249 91.844 85.1882 96.3398 85.1882C98.9958 85.1882 101.149 87.3319 101.149 89.976C101.149 91.9642 99.9309 93.67 98.1974 94.3928C99.5749 97.6729 102.829 99.9776 106.623 99.9776C109.105 99.9776 111.355 98.992 113 97.3924C113.611 96.7519 113.987 95.8847 113.987 94.931C113.987 94.4472 113.89 93.9858 113.715 93.5652L113.715 93.5649C114.815 91.8432 115.698 90.0025 116.352 88.0878C115.056 89.2576 113.621 90.3135 112.051 91.2263L109.622 89.0278L111.783 79.1703L111.783 79.1707C114.591 72.4642 121.561 68.1547 128.154 69.0198C128.232 69.8257 128.272 70.6422 128.272 71.4683C128.272 73.3241 128.071 75.1333 127.692 76.8766C129.443 74.8862 130.888 72.623 131.953 70.158L131.95 70.1481C132.457 69.8929 132.849 69.4444 133.028 68.8999C133.518 67.3025 133.589 66.9206 133.909 65.2566C134.606 62.6673 131.134 59.0685 128.923 57.8465C129.607 57.5807 132.087 57.3425 132.95 57.4682C128.68 55.755 123.737 55.1094 119.231 55.3249C118.214 53.3635 116.354 51.9058 114.129 51.4257C106.407 50.0834 98.3318 49.9422 90.1866 51.1555C92.3618 53.9436 93.8759 57.2171 94.5746 60.7108L94.5133 60.5883C90.6855 52.9823 82.8376 48 74.0509 48C73.8965 48 73.7422 48.0029 73.5878 48.0059C73.5424 48.5937 73.5188 49.1878 73.5188 49.7871C73.5188 54.3495 74.8674 58.5979 77.1884 62.1604C75.4081 60.327 73.9338 58.1965 72.8492 55.8513C61.5465 60.3795 51.8802 67.3934 44.3963 75.9998L44.396 75.9991L44.393 75.998C37.0983 84.021 28.7274 91.0535 19.5105 96.8799C20.4507 97.2604 21.4789 97.4703 22.5565 97.4703C22.9956 97.4703 23.4265 97.4357 23.8468 97.3685L25.0507 97.185C23.6359 97.8832 22.2068 98.5163 20.505 98.8221C18.54 99.1743 16.5975 99.0968 14.7739 98.6585C13.2347 98.4004 11.6245 98.3982 10 98.6901C11.6412 98.5111 13.2469 98.6243 14.7647 98.9879C16.5532 99.5512 18.4857 99.7626 20.4707 99.546C24.6681 99.0883 27.3776 96.5718 32.0969 96.0571C33.5353 95.9001 34.9538 95.9075 36.3335 96.0637C45.6213 97.2766 48.8305 91.8094 57.0584 92.9237C48.7227 92.9237 46.2975 98.8174 36.8409 98.8174C34.6148 98.8174 32.5016 99.2993 30.6005 100.163C31.6264 100.313 32.6427 100.528 33.6435 100.809C35.9664 101.601 38.4026 102 40.8577 102C43.3128 102 45.7491 101.601 48.072 100.809C50.2076 100.209 52.4164 99.9089 54.6355 99.9089C56.855 99.9089 59.063 100.209 61.199 100.809C63.5219 101.601 65.9581 102 68.4132 102C70.8683 102 73.3045 101.601 75.6274 100.809C77.7634 100.209 79.9718 99.9089 82.1909 99.9089C84.4101 99.9089 86.6185 100.209 88.7545 100.809C89.5237 101.072 90.3059 101.291 91.0965 101.467C87.8408 98.8718 83.7102 97.3189 79.2148 97.3189C74.4671 97.3189 71.4987 99.5265 67.2761 99.5265C65.2797 99.5265 63.3815 99.1071 61.6654 98.353C60.1963 97.8273 58.6124 97.5409 56.9613 97.5409C58.6084 97.4269 60.2082 97.6034 61.7105 98.0269C63.4753 98.6607 65.3979 98.9482 67.3895 98.8107C71.6025 98.5196 74.4099 96.1126 79.1461 95.7851C82.9506 95.5218 86.5712 96.3924 89.6751 98.1056L89.7996 98.1754L89.8731 98.217ZM128.835 62.2071C129.127 62.2442 129.333 62.5093 129.296 62.7993C129.258 63.0894 128.992 63.2945 128.701 63.2578C128.409 63.2207 128.203 62.9556 128.24 62.6655C128.277 62.3754 128.544 62.1699 128.835 62.2071ZM130.181 64.4033C130.473 64.4405 130.679 64.7055 130.642 64.996C130.604 65.286 130.338 65.4912 130.047 65.4541C129.755 65.4169 129.549 65.1519 129.587 64.8618C129.623 64.5714 129.89 64.3662 130.181 64.4033ZM127.637 64.26C127.929 64.2971 128.135 64.5622 128.098 64.8522C128.061 65.1423 127.794 65.3474 127.503 65.3103C127.212 65.2732 127.005 65.0081 127.042 64.718C127.08 64.428 127.346 64.2228 127.637 64.26ZM75.8712 49.436C83.879 51.2202 90.3003 57.1833 92.7056 64.9055C91.6671 64.2658 90.5884 63.6853 89.4739 63.1684C87.2799 62.256 84.8721 61.7512 82.3453 61.7512C82.0805 61.7512 81.8172 61.7582 81.5554 61.7688C82.924 61.0372 84.4891 60.6214 86.1509 60.6214C86.5313 60.6214 86.9065 60.6435 87.2754 60.6861C84.5552 55.9973 80.6085 52.1025 75.8712 49.436ZM110.956 57.5917C111.801 57.366 112.654 57.3822 113.44 57.5969C113.702 57.6634 113.977 57.6987 114.259 57.6987C114.597 57.6987 114.923 57.6483 115.23 57.5546C115.177 57.8263 115.092 58.0862 114.976 58.3299V58.3303C114.596 59.2384 113.812 59.9667 112.784 60.2409C112.155 60.4086 111.519 60.3836 110.941 60.202V60.2027C109.989 59.9101 108.953 59.8509 107.918 60.0762C108.503 58.8943 109.577 57.9597 110.956 57.5917Z" fill="white"/>
</svg>
